<?xml version="1.0" ?><!DOCTYPE svg  PUBLIC '-//W3C//DTD SVG 1.1//EN'  'http://www.w3.org/Graphics/SVG/1.1/DTD/svg11.dtd'><svg height="43.3492mm" style="shape-rendering:geometricPrecision; text-rendering:geometricPrecision; image-rendering:optimizeQuality; fill-rule:evenodd; clip-rule:evenodd" version="1.1" viewBox="0 0 4335 4335" width="43.3492mm" xml:space="preserve" xmlns="http://www.w3.org/2000/svg" xmlns:xlink="http://www.w3.org/1999/xlink"><defs><style type="text/css">
   <![CDATA[
    .fil3 {fill:#BCBCBC}
    .fil4 {fill:#FEFEFE}
    .fil1 {fill:#BCBCBC;fill-rule:nonzero}
    .fil0 {fill:url(#id0)}
    .fil2 {fill:url(#id1);fill-rule:nonzero}
   ]]>
  </style><linearGradient gradientUnits="userSpaceOnUse" id="id0" x1="2163.54" x2="2163.54" y1="0.64" y2="4335.56"><stop offset="0" style="stop-color:#428FE7"/><stop offset="1" style="stop-color:#1B3CCD"/></linearGradient><linearGradient gradientUnits="userSpaceOnUse" id="id1" x1="2227.19" x2="2227.19" y1="1192.74" y2="3044.4"><stop offset="0" style="stop-color:white"/><stop offset="0.988235" style="stop-color:#F0F0F0"/><stop offset="1" style="stop-color:#E1E1E1"/></linearGradient></defs><g id="Warstwa_x0020_1"><rect class="fil0" height="4335" id="Prostokąt_x0020_3" width="4335" x="-4" y="1"/><path class="fil1" d="M738 1280l727 0c144,0 251,6 322,18 71,12 134,37 190,75 56,38 102,88 140,152 37,63 56,134 56,213 0,85 -23,163 -69,234 -46,71 -108,124 -186,160 110,33 195,88 255,166 59,78 89,169 89,275 0,83 -19,163 -58,242 -39,78 -91,141 -158,188 -66,47 -149,75 -246,86 -61,6 -209,11 -443,12l-619 0 0 -1819zm368 302l0 419 240 0c143,0 232,-2 266,-6 63,-7 112,-29 148,-65 36,-36 54,-83 54,-141 0,-56 -16,-102 -47,-137 -31,-35 -77,-56 -138,-64 -36,-4 -141,-6 -313,-6l-211 0zm0 721l0 488 340 0c132,0 216,-4 252,-11 55,-10 99,-34 133,-73 34,-39 52,-90 52,-155 0,-55 -13,-101 -40,-139 -26,-38 -65,-66 -115,-83 -50,-17 -159,-26 -326,-26l-297 0zm2225 378l348 58c-44,127 -115,224 -211,291 -97,66 -217,100 -362,100 -229,0 -399,-75 -508,-225 -87,-120 -130,-272 -130,-455 0,-218 57,-390 171,-514 114,-124 258,-186 433,-186 196,0 350,65 464,194 113,130 167,328 162,596l-871 0c3,103 30,184 84,241 53,58 120,86 200,86 55,0 100,-15 137,-44 37,-30 65,-77 84,-144zm20 -353c-3,-101 -28,-178 -78,-231 -50,-53 -110,-79 -181,-79 -76,0 -138,28 -188,83 -50,55 -74,131 -73,226l519 0z"/><path class="fil2" d="M745 1193l727 0c144,0 251,6 322,18 71,12 134,37 190,75 56,38 102,88 140,152 37,63 56,134 56,213 0,85 -23,163 -69,234 -46,71 -108,124 -186,160 110,33 195,88 255,166 59,78 89,169 89,275 0,83 -19,163 -58,242 -39,78 -91,141 -158,188 -66,47 -149,75 -246,86 -61,6 -209,11 -443,12l-619 0 0 -1819zm368 302l0 419 240 0c143,0 232,-2 266,-6 63,-7 112,-29 148,-65 36,-36 54,-83 54,-141 0,-56 -16,-102 -47,-137 -31,-35 -77,-56 -138,-64 -36,-4 -141,-6 -313,-6l-211 0zm0 721l0 488 340 0c132,0 216,-4 252,-11 55,-10 99,-34 133,-73 34,-39 52,-90 52,-155 0,-55 -13,-101 -40,-139 -26,-38 -65,-66 -115,-83 -50,-17 -159,-26 -326,-26l-297 0zm2225 378l348 58c-44,127 -115,224 -211,291 -97,66 -217,100 -362,100 -229,0 -399,-75 -508,-225 -87,-120 -130,-272 -130,-455 0,-218 57,-390 171,-514 114,-124 258,-186 433,-186 196,0 350,65 464,194 113,130 167,328 162,596l-871 0c3,103 30,184 84,241 53,58 120,86 200,86 55,0 100,-15 137,-44 37,-30 65,-77 84,-144zm20 -353c-3,-101 -28,-178 -78,-231 -50,-53 -110,-79 -181,-79 -76,0 -138,28 -188,83 -50,55 -74,131 -73,226l519 0z"/><rect class="fil3" height="229" width="762" x="2726" y="1376"/><rect class="fil4" height="229" id="Prostokąt_x0020_2" width="762" x="2726" y="1321"/></g></svg>